<svg xmlns="http://www.w3.org/2000/svg" xmlns:xlink="http://www.w3.org/1999/xlink" version="1.1" width="256" height="256" viewBox="0 0 256 256" xml:space="preserve">

<defs>
</defs>
<g style="stroke: none; stroke-width: 0; stroke-dasharray: none; stroke-linecap: butt; stroke-linejoin: miter; stroke-miterlimit: 10; fill: none; fill-rule: nonzero; opacity: 1;" transform="translate(1.4065934065934016 1.4065934065934016) scale(2.81 2.81)" >
	<path d="M 44.913 26.682 H 15.231 c -8.28 0 -15.002 -3.611 -15.211 -11.841 C 0.016 14.972 0 15.099 0 15.231 v 31.303 c 8.265 10.233 20.908 16.784 35.087 16.784 h 0.682 c 8.28 0 12.002 3.611 12.211 11.841 c 0.003 -0.131 0.02 -0.258 0.02 -0.39 C 48 83.181 44.181 90 35.769 90 h 39 C 83.181 90 90 83.181 90 74.769 C 90 42.732 69.814 26.682 44.913 26.682 z" style="stroke: none; stroke-width: 1; stroke-dasharray: none; stroke-linecap: butt; stroke-linejoin: miter; stroke-miterlimit: 10; fill: rgb(97,121,189); fill-rule: nonzero; opacity: 1;" transform=" matrix(1 0 0 1 0 0) " stroke-linecap="round" />
	<path d="M 90 74.769 L 90 74.769 c 0 -24.901 -20.186 -45.087 -45.087 -45.087 H 15.231 c -8.28 0 -15.002 -6.611 -15.211 -14.841 C 0.016 14.972 0 15.099 0 15.231 C 0 6.819 6.819 0 15.231 0 h 59.538 C 83.181 0 90 6.819 90 15.231 V 74.769" style="stroke: none; stroke-width: 1; stroke-dasharray: none; stroke-linecap: butt; stroke-linejoin: miter; stroke-miterlimit: 10; fill: rgb(105,131,205); fill-rule: nonzero; opacity: 1;" transform=" matrix(1 0 0 1 0 0) " stroke-linecap="round" />
	<path d="M 0 74.769 V 43.534 c 8.265 10.233 20.908 16.784 35.087 16.784 h 0.682 c 8.28 0 15.002 6.611 15.211 14.841 c 0.003 -0.131 0.02 -0.258 0.02 -0.39 C 51 83.181 44.181 90 35.769 90 H 15.231 C 6.819 90 0 83.181 0 74.769 z" style="stroke: none; stroke-width: 1; stroke-dasharray: none; stroke-linecap: butt; stroke-linejoin: miter; stroke-miterlimit: 10; fill: rgb(88,110,172); fill-rule: nonzero; opacity: 1;" transform=" matrix(1 0 0 1 0 0) " stroke-linecap="round" />
	<path d="M 13.903 14.081 c -0.507 0 -0.907 0.445 -0.907 0.988 c 0 0.543 0.409 0.988 0.907 0.988 c 0.507 0 0.907 -0.445 0.907 -0.988 C 14.82 14.526 14.41 14.081 13.903 14.081 z M 17.151 14.081 c -0.507 0 -0.907 0.445 -0.907 0.988 c 0 0.543 0.409 0.988 0.907 0.988 c 0.507 0 0.907 -0.445 0.907 -0.988 C 18.058 14.526 17.658 14.081 17.151 14.081 z" style="stroke: none; stroke-width: 1; stroke-dasharray: none; stroke-linecap: butt; stroke-linejoin: miter; stroke-miterlimit: 10; fill: rgb(255,255,255); fill-rule: nonzero; opacity: 1;" transform=" matrix(2.81 0 0 2.81 1.4065934065934016 1.4065934065934016) " stroke-linecap="round" />
	<path d="M 21.475 6.617 H 9.553 c -1.005 0 -1.824 0.819 -1.824 1.833 v 12.028 c 0 1.014 0.819 1.833 1.824 1.833 h 10.089 l -0.472 -1.646 l 1.139 1.059 l 1.077 0.996 l 1.913 1.69 V 8.45 C 23.298 7.435 22.48 6.617 21.475 6.617 z M 18.04 18.236 c 0 0 -0.32 -0.383 -0.587 -0.721 c 1.165 -0.329 1.61 -1.059 1.61 -1.059 c -0.365 0.24 -0.712 0.409 -1.023 0.525 c -0.445 0.187 -0.872 0.311 -1.29 0.383 c -0.854 0.16 -1.637 0.116 -2.304 -0.009 c -0.507 -0.098 -0.943 -0.24 -1.308 -0.383 c -0.205 -0.08 -0.427 -0.178 -0.649 -0.302 c -0.027 -0.018 -0.053 -0.027 -0.08 -0.044 c -0.018 -0.009 -0.027 -0.018 -0.036 -0.027 c -0.16 -0.089 -0.249 -0.151 -0.249 -0.151 s 0.427 0.712 1.557 1.05 c -0.267 0.338 -0.596 0.738 -0.596 0.738 c -1.966 -0.062 -2.714 -1.352 -2.714 -1.352 c 0 -2.865 1.281 -5.187 1.281 -5.187 c 1.281 -0.961 2.5 -0.934 2.5 -0.934 l 0.089 0.107 c -1.601 0.463 -2.34 1.165 -2.34 1.165 s 0.196 -0.107 0.525 -0.258 c 0.952 -0.418 1.708 -0.534 2.02 -0.56 c 0.053 -0.009 0.098 -0.018 0.151 -0.018 c 0.543 -0.071 1.157 -0.089 1.797 -0.018 c 0.845 0.098 1.753 0.347 2.678 0.854 c 0 0 -0.703 -0.667 -2.215 -1.13 l 0.125 -0.142 c 0 0 1.219 -0.027 2.5 0.934 c 0 0 1.281 2.322 1.281 5.187 C 20.763 16.884 20.007 18.174 18.04 18.236 z" style="stroke: none; stroke-width: 1; stroke-dasharray: none; stroke-linecap: butt; stroke-linejoin: miter; stroke-miterlimit: 10; fill: rgb(255,255,255); fill-rule: nonzero; opacity: 1;" transform=" matrix(2.81 0 0 2.81 1.4065934065934016 1.4065934065934016) " stroke-linecap="round" />
</g>
</svg>